<svg xmlns="http://www.w3.org/2000/svg" width="512" height="512" viewBox="0 0 512 512">
  <rect width="512" height="512" rx="112" fill="#141220"/>
  <g transform="matrix(0.5405 0 0 -0.5405 113.10 400.59)">
    <path d="M34 83Q24 97 25.0 119.0Q26 141 51 157Q67 167 85.0 165.5Q103 164 120 147Q149 118 181.0 102.0Q213 86 261 86Q276 87 294.0 90.5Q312 94 325.5 106.5Q339 119 339 145Q339 167 324.0 180.0Q309 193 284.5 202.0Q260 211 230 219Q199 228 166.5 239.0Q134 250 107.0 267.5Q80 285 63.0 314.0Q46 343 46 387Q46 437 74.0 472.0Q102 507 146.5 526.0Q191 545 240 545Q271 545 305.0 537.5Q339 530 370.0 513.5Q401 497 422 470Q433 455 435.0 434.0Q437 413 416 396Q401 384 381.0 385.5Q361 387 348 399Q331 421 302.5 434.0Q274 447 237 447Q222 447 204.5 443.5Q187 440 174.0 428.5Q161 417 161 392Q161 369 176.0 355.5Q191 342 216.5 333.5Q242 325 271 317Q301 309 332.0 298.0Q363 287 389.0 269.0Q415 251 431.0 222.5Q447 194 447 150Q447 99 417.0 63.0Q387 27 342.0 8.5Q297 -10 250 -10Q191 -10 132.0 10.5Q73 31 34 83Z" fill="#3D83F5"/>
  </g>
  <polyline points="321.5,107.5 385.0,158.7 321.5,209.9"
    fill="none" stroke="#E95145" stroke-width="28.2" stroke-linecap="round" stroke-linejoin="round"/>
</svg>